PathFileType	3	(X/Y/Z)	C:\Users\koon_\Desktop\
DataRate	CameraRate	NumFrames	NumMarkers	Units	OrigDataRate	OrigDataStartFrame	OrigNumFrames
100.0	100.0	9	27	mm	100.0	1132	4526	
Frame#	Time	GM:LFHD			GM:RFHD			GM:LBHD			GM:RBHD			GM:C7			GM:T10			GM:CLAV			GM:STRN			GM:RBAK			GM:LSHO			GM:LUPA			GM:LELB			GM:LFRA			GM:LWRA			GM:LWRB			GM:LFIN			GM:RSHO			GM:RUPA			GM:RELB			GM:RFRA			GM:RWRA			GM:RWRB			GM:RFIN			GM:LASI			GM:RASI			GM:LPSI			GM:RPSI			
		X1	Y1	Z1	X2	Y2	Z2	X3	Y3	Z3	X4	Y4	Z4	X5	Y5	Z5	X6	Y6	Z6	X7	Y7	Z7	X8	Y8	Z8	X9	Y9	Z9	X10	Y10	Z10	X11	Y11	Z11	X12	Y12	Z12	X13	Y13	Z13	X14	Y14	Z14	X15	Y15	Z15	X16	Y16	Z16	X17	Y17	Z17	X18	Y18	Z18	X19	Y19	Z19	X20	Y20	Z20	X21	Y21	Z21	X22	Y22	Z22	X23	Y23	Z23	X24	Y24	Z24	X25	Y25	Z25	X26	Y26	Z26	X27	Y27	Z27	
1132	11.31	66.613785	1604.4039	-89.167168	-87.138641	1598.3005	-85.07695	63.484245	1589.1128	-221.58795	-99.23481	1585.3823	-200.39259	-11.022498	1417.2275	-259.48126	-4.2839999	1220.9075	-298.43304	-0.80049849	1360.8489	-100.84241	3.5962141	1215.8467	-49.101292	-98.126732	1301.8483	-302.43478	164.93745	1392.9432	-193.19551	233.35425	1290.6276	-187.99849	272.30988	1083.4102	-218.53969	274.91534	986.48999	-105.36183	288.15674	922.86865	-70.015358	316.30319	893.96484	-123.903	308.38348	839.5968	-35.898685	-193.17513	1388.4056	-167.27982	-245.64516	1151.7136	-171.44809	-269.87531	1070.2085	-221.50925	-245.88586	1012.6034	-152.22444	-236.54761	883.06146	-126.49381	-258.27914	862.47333	-179.41159	-263.74741	801.5556	-111.14856	140.65536	902.06335	-84.857765	-153.28517	907.84308	-85.283485	72.519249	947.133	-294.9454	-89.801659	933.73279	-296.056
1133	11.32	66.094002	1604.2477	-89.36338	-87.742393	1598.2186	-85.33709	63.008568	1589.2061	-221.75677	-100.14701	1585.3757	-200.49883	-11.539611	1417.0862	-259.99594	-4.7131124	1220.731	-298.74509	-1.3172206	1361.0348	-101.27079	3.2634494	1216.0253	-49.302971	-98.597656	1301.5439	-302.72293	164.24385	1393.165	-193.8679	233.51009	1291.7295	-187.71878	275.66049	1085.1068	-216.25246	284.11523	990.70013	-100.84611	298.26404	927.59796	-65.475769	325.00677	897.94263	-119.7829	320.80283	845.16528	-30.760544	-193.66026	1388.4165	-167.74486	-246.16405	1151.7159	-171.60564	-270.30234	1070.0428	-221.55545	-246.19217	1012.5806	-152.18944	-236.17177	883.19977	-125.81104	-258.52271	862.34998	-179.07346	-263.76535	801.51343	-110.77234	140.54247	902.23773	-84.614937	-153.40646	907.79218	-85.247635	72.292931	947.13239	-295.00058	-90.038353	933.74377	-296.08002
1134	11.33	65.595955	1604.0142	-89.575073	-88.277145	1598.105	-85.607971	62.501797	1589.2682	-222.01601	-100.59556	1585.5469	-200.69843	-12.094496	1416.9935	-260.55759	-5.1782331	1220.4723	-298.99207	-1.9037981	1361.1781	-101.71629	2.9631112	1216.2665	-49.573769	-99.100166	1301.2795	-303.10263	163.4312	1393.4424	-194.65215	233.6832	1293.0015	-187.52841	279.31668	1087.0918	-213.87346	292.48041	995.1626	-97.102203	309.065	933.12451	-60.80545	334.69351	902.77814	-115.12224	333.96173	851.68805	-25.218002	-194.2108	1388.3368	-168.24519	-246.67992	1151.7003	-171.79498	-270.83466	1069.8657	-221.45747	-246.51747	1012.545	-152.1223	-236.39629	883.15375	-125.6714	-258.77078	862.2948	-178.82854	-263.81799	801.44873	-110.49448	140.35201	902.58368	-83.903511	-153.47157	907.7887	-85.11676	72.046158	947.13031	-295.14645	-90.284752	933.65613	-296.06833
1135	11.34	65.152374	1603.7822	-89.869141	-88.666313	1598.0281	-85.767052	61.989056	1589.3164	-222.27777	-101.11439	1585.7318	-200.94327	-12.735481	1416.8933	-261.07559	-5.6626396	1220.2703	-299.30927	-2.5080085	1361.3608	-102.12418	2.5374238	1216.5031	-49.922592	-99.692123	1301	-303.435	162.58014	1393.7913	-195.42319	234.01971	1294.5732	-187.45027	283.36169	1089.4481	-211.45377	302.85507	1000.8222	-92.686493	320.60223	939.87024	-55.213501	344.45346	908.12634	-110.37381	347.7886	859.40045	-19.328512	-194.77565	1388.2887	-168.75743	-247.18292	1151.6189	-171.91113	-271.33755	1069.6511	-221.49071	-246.79175	1012.5089	-152.04707	-236.51167	883.16217	-125.3414	-259.02914	862.22845	-178.58728	-263.90228	801.42365	-110.13108	140.33423	902.28674	-85.196037	-153.60327	907.76898	-85.045578	71.773048	947.08887	-295.23181	-90.600677	933.60278	-296.02878
1136	11.35	64.733833	1603.5168	-90.144333	-89.099457	1597.9233	-85.942406	61.446003	1589.4031	-222.60997	-101.23872	1586.0466	-201.26244	-13.344543	1416.7898	-261.64148	-6.1146874	1220.1221	-299.68478	-3.0570869	1361.5347	-102.67014	2.0768454	1216.7166	-50.311153	-100.3176	1300.731	-303.7973	161.70085	1394.2095	-196.25929	234.41829	1296.3772	-187.50281	287.68472	1092.1654	-208.83121	310.86871	1006.6564	-88.685555	332.09293	947.28278	-50.606243	354.70801	914.28436	-105.25232	362.18277	868.31824	-13.189368	-195.37596	1388.2305	-169.2482	-247.73155	1151.5052	-172.03255	-271.90247	1069.4423	-221.50519	-247.2058	1012.3874	-151.96637	-236.71263	883.16614	-125.09695	-259.33167	862.12854	-178.24535	-263.99466	801.37708	-109.7579	140.23123	902.26648	-85.297905	-153.7778	907.7887	-84.981346	71.397415	947.02783	-295.4169	-90.947792	933.5672	-295.99817
1137	11.36	64.319695	1603.1914	-90.427917	-89.430779	1597.7767	-86.10099	60.943779	1589.4492	-222.93614	-102.21428	1586.1577	-201.41039	-13.98458	1416.6907	-262.15573	-6.498168	1219.9119	-299.94589	-3.7108076	1361.6895	-103.11149	1.6121044	1216.905	-50.712757	-100.98333	1300.4742	-304.10181	160.74767	1394.6864	-197.20921	234.79434	1298.4321	-187.64948	292.29874	1095.2935	-205.98364	320.40637	1013.6226	-84.45443	344.04739	955.71515	-45.626545	365.19321	921.80682	-99.604134	377.02686	878.44672	-6.7609916	-195.98842	1388.1489	-169.71033	-248.22647	1151.3978	-172.15477	-272.3718	1069.2399	-221.49541	-247.6526	1012.3167	-151.92828	-236.92618	883.08606	-124.84921	-259.67969	861.9931	-177.88815	-264.10904	801.32056	-109.39024	140.0563	902.31287	-85.538895	-153.84991	907.76447	-84.899879	71.042503	946.96252	-295.49515	-91.343719	933.53741	-295.87833
1138	11.37	63.966259	1602.868	-90.671051	-89.826103	1597.7234	-86.305946	60.462368	1589.5413	-223.30476	-102.68537	1586.4044	-201.58475	-14.621342	1416.6338	-262.70657	-6.9279008	1219.7	-300.18991	-4.2172937	1361.8398	-103.58977	1.2210671	1217.134	-51.073578	-101.62319	1300.2964	-304.43546	159.67822	1395.2023	-198.28323	235.17514	1300.632	-187.76828	297.13544	1098.8601	-202.98981	330.09061	1021.2938	-80.008675	356.27072	965.22888	-40.268841	376.19589	929.88879	-93.812675	392.01077	889.80396	-0.26218745	-196.56815	1388.0961	-170.17033	-248.77306	1151.3029	-172.27444	-272.9501	1069.05	-221.49051	-248.12187	1012.2328	-151.85904	-237.13206	882.97113	-124.64931	-260.00403	861.89685	-177.57605	-264.28592	801.26361	-108.98753	139.90077	902.33368	-85.686119	-153.99457	907.77673	-84.880348	70.689964	946.94855	-295.62875	-91.705238	933.52411	-295.88187
1139	11.38	63.641243	1602.5425	-91.05101	-90.163338	1597.6442	-86.498558	59.937866	1589.5916	-223.64754	-103.16983	1586.6506	-201.84322	-15.332788	1416.5425	-263.3082	-7.3886385	1219.5089	-300.564	-4.8229456	1361.9918	-104.08552	0.86988884	1217.4194	-51.418667	-102.30586	1300.1154	-304.76373	158.57327	1395.7374	-199.46815	235.56595	1302.9926	-188.11339	302.15176	1102.7848	-199.89487	339.90732	1029.7639	-75.544006	368.63531	975.71881	-34.853695	387.55399	938.8988	-87.767212	407.31693	902.40186	6.4879794	-197.16029	1388.004	-170.56116	-249.31229	1151.1498	-172.39258	-273.47531	1068.8256	-221.40088	-248.51486	1012.1361	-151.80768	-237.38522	882.95801	-124.39303	-260.3584	861.77197	-177.32079	-264.48389	801.15424	-108.7388	139.73087	902.4538	-85.859352	-154.18025	907.7536	-84.860542	70.30191	946.90234	-295.80078	-92.094994	933.48157	-295.82376
1140	11.39	63.339458	1602.2042	-91.362694	-90.427315	1597.5385	-86.671516	59.476345	1589.6045	-223.98369	-103.21716	1587.0234	-202.18619	-16.087811	1416.4194	-263.93512	-7.8707757	1219.2852	-300.87131	-5.3924913	1362.1799	-104.69168	0.48413479	1217.6721	-51.784779	-102.93171	1299.9037	-305.15491	157.50586	1396.2991	-200.74457	235.98994	1305.5763	-188.56882	307.26215	1107.1204	-196.68671	350.15253	1039.0375	-70.993263	381.01608	987.12885	-29.452368	399.05487	948.82281	-81.39003	422.61066	916.14661	13.174752	-197.77	1387.9469	-171.02803	-249.82825	1151.0583	-172.39117	-274.07736	1068.6315	-221.36122	-248.92593	1012.0436	-151.73247	-237.70679	882.90765	-124.1574	-260.66519	861.64642	-177.08882	-264.72211	800.99121	-108.41321	139.51653	902.60291	-85.975807	-154.29848	907.77795	-84.745018	69.882072	946.86481	-295.92188	-92.483528	933.44855	-295.79614
